<?xml version="1.0" encoding="utf-8"?>
<!-- Generator: Adobe Illustrator 25.2.3, SVG Export Plug-In . SVG Version: 6.00 Build 0)  -->
<svg version="1.0" id="vogel" xmlns="http://www.w3.org/2000/svg" xmlns:xlink="http://www.w3.org/1999/xlink" x="0px" y="0px"
	 viewBox="0 0 1920 1920" enable-background="new 0 0 1920 1920" xml:space="preserve">
<g id="body">
	
		<image overflow="visible" opacity="0.61" width="1382" height="1259" xlink:href="BB30B1DEB243212C.png"  transform="matrix(1 0 0 1 210 392)">
	</image>
	<g>
		<g>
			<linearGradient id="SVGID_1_" gradientUnits="userSpaceOnUse" x1="894.312" y1="430.4684" x2="894.312" y2="1598.704">
				<stop  offset="0" style="stop-color:#1D9AEF"/>
				<stop  offset="0.1414" style="stop-color:#1E87CF"/>
				<stop  offset="0.3244" style="stop-color:#1F72AB"/>
				<stop  offset="0.4968" style="stop-color:#1F6392"/>
				<stop  offset="0.6526" style="stop-color:#205A82"/>
				<stop  offset="0.7772" style="stop-color:#20577D"/>
			</linearGradient>
			<path fill="url(#SVGID_1_)" d="M1539.7,722.7L1471,521.8c-3,0.8-6.8,1.3-10.7,0.2c-3.4-0.9-6.5-2.9-10-6.1
				c-86.6-81-187.8-105.5-300.1-68.9c-143.5,46.6-225,191.3-195.4,339.4c0.1,0.3,1.3,3.8-0.2,5.5c0,0-0.1,0.1-0.2,0.2
				c-1.6,1.5-4.3,0.7-4.9,0.7l-2.4,2c0.8,0.1,1.6,0.1,2.4,0.2l-267.2,552.6c-0.9-0.1-1.7-0.2-2.6-0.3
				c-127.2,95.8-270.2,135.5-430.8,119.3c26.5,17.1,52.2,31.6,78.8,44.7c118.5,58.6,243.9,87.4,376,87.4c62,0,123.4-6,184.1-18.9
				c145.3-30.9,272.7-96.5,381.3-198c78.5-73.3,140.1-159.1,186-256.1c59.6-126,89.3-258.5,83.9-398.3
				C1538.9,725.6,1539,724.1,1539.7,722.7z"/>
		</g>
	</g>
</g>
<g id="backWing">
	
		<image overflow="visible" opacity="0.61" width="550" height="595" xlink:href="BB30B1DEB243213F.png"  transform="matrix(1 0 0 1 423 268)">
	</image>
	<g>
		<g>
			
				<linearGradient id="SVGID_2_" gradientUnits="userSpaceOnUse" x1="756.7493" y1="362.4108" x2="756.7493" y2="751.1989" gradientTransform="matrix(0.8846 0.4664 -0.4664 0.8846 310.8615 -254.887)">
				<stop  offset="0" style="stop-color:#1D9AEF"/>
				<stop  offset="0.7772" style="stop-color:#20577D"/>
			</linearGradient>
			<path fill="url(#SVGID_2_)" d="M741.5,629.8c-69.3-95.7-115.8-201.5-140.4-317c-1.6-7.7-1.7-7.7-8.5-3.1
				c-47.7,32-83.5,74-106.1,126.9c-31.3,72.9-32.9,146.7-5.4,221.1c4.1,11.2,9.5,21.8,15.2,34.3L921,810.7
				C851.8,759.7,791.9,699.4,741.5,629.8z"/>
		</g>
	</g>
</g>
<g id="lowWing">
	
		<image overflow="visible" opacity="0.61" width="630" height="644" xlink:href="BB30B1DEB2432121.png"  transform="matrix(1 0 0 1 372 756)">
	</image>
	<g>
		<g>
			<linearGradient id="SVGID_3_" gradientUnits="userSpaceOnUse" x1="680.0338" y1="794.9281" x2="680.0338" y2="1347.5859">
				<stop  offset="0" style="stop-color:#1F70A7"/>
				<stop  offset="0.6726" style="stop-color:#20577D"/>
			</linearGradient>
			<path fill="url(#SVGID_3_)" d="M949.5,794.9C949.4,794.9,949.4,794.9,949.5,794.9l-408.8,341.5c0,0,0,0,0,0c0,0,0,0,0,0
				c0,0.1-0.1,0.1-0.1,0.1c0,0,0.1,0,0.1,0c-36.8,10.8-84.8,13-123.4,6.1c-7.5-1.3-7.9-0.9-5.3,6.2c36.3,97.1,104.4,159.6,204,188
				c21.6,6.1,43.8,8.3,66.3,10.6c43.9-90.7,87.8-181.5,131.6-272.2C859.1,981.9,904.3,888.4,949.5,794.9
				C949.5,794.9,949.5,794.9,949.5,794.9z"/>
		</g>
	</g>
</g>
<g id="midWing">
	
		<image overflow="visible" opacity="0.61" width="735" height="479" xlink:href="BB30B1DEB2432122.png"  transform="matrix(1 0 0 1 267 710)">
	</image>
	<g>
		<g>
			<linearGradient id="SVGID_4_" gradientUnits="userSpaceOnUse" x1="627.7341" y1="488.52" x2="627.7341" y2="1136.4678">
				<stop  offset="0" style="stop-color:#1D9AEF"/>
				<stop  offset="0.7772" style="stop-color:#20577D"/>
			</linearGradient>
			<path fill="url(#SVGID_4_)" d="M873.1,786.6c-52-7.9-102.4-20.4-151.4-37.6c49.3,17.5,100.1,30.2,152.4,38.3l-434.8,92.9l0,0
				c-0.3,0.1-0.6,0.1-0.9,0.1c0.1,0,0.1,0.1,0.2,0.1c-48.1-2-91.2-14.5-132.6-36.9c0.3,70.8,21.1,133.4,64.7,188
				c43.7,54.6,100.3,88.9,170,104.9l408.9-341.7C924,792.9,898.4,790.4,873.1,786.6z"/>
		</g>
	</g>
</g>
<g id="topWing">
	
		<image overflow="visible" opacity="0.61" width="655" height="483" xlink:href="BB30B1DEB2432123.png"  transform="matrix(1 0 0 1 272 450)">
	</image>
	<g>
		<g>
			<linearGradient id="SVGID_5_" gradientUnits="userSpaceOnUse" x1="592.0356" y1="488.6229" x2="592.0356" y2="880.1961">
				<stop  offset="0" style="stop-color:#1D9AEF"/>
				<stop  offset="0.7772" style="stop-color:#20577D"/>
			</linearGradient>
			<path fill="url(#SVGID_5_)" d="M721.6,749c-31.8-11.2-63.1-24.3-93.7-39.4c-106.8-52.8-198-125.2-274.2-216.7
				c-2.1-2.5-3.3-3.9-4.3-4.3c-0.8,0.8-1.8,2.5-3.2,5.1c-27.6,50.9-39.9,105.2-35.3,163c6.2,79.7,39.3,146.3,98.7,199.9
				c8.9,8,18.7,15,29.6,23.5L874,787.3C821.7,779.2,770.9,766.5,721.6,749z"/>
		</g>
	</g>
</g>
<g id="beak">
	
		<image overflow="visible" opacity="0.5" width="283" height="335" xlink:href="BB30B1DEB2432124.png"  transform="matrix(1 0 0 1 1427 438)">
	</image>
	<g>
		<linearGradient id="SVGID_6_" gradientUnits="userSpaceOnUse" x1="1573.6512" y1="448.0912" x2="1573.6512" y2="722.6837">
			<stop  offset="0" style="stop-color:#DE846C"/>
			<stop  offset="0.7772" style="stop-color:#9E577D"/>
		</linearGradient>
		<path fill="url(#SVGID_6_)" d="M1471.8,517c22.5-28.6,88.7-23.5,125.7-43.1c1.7-0.9,19.8-9.1,43.1-22.5c1.6-0.9,3.2-1.6,6.5-3.3
			c-23.5,69.4-65.3,122.2-125.3,161.4c13.8-0.6,27.1-3.2,40.4-5.8c40.6-8,80-20.2,118-36.5c1.1-0.5,2.2-0.7,3.3-1
			c0.4,0.4,0.9,0.7,1.3,1.1c-28.7,43.3-62.9,81.6-102,115.7c-12.6,11.1-25.7,21.7-39.4,31.5c-1.5,1.1-2.4,2.2-3,3.4
			c-0.3,0.7-0.5,1.2-0.5,1.4c-0.5,1.9-0.1,3.3-0.2,3.4C1538.7,723.1,1431.1,568.7,1471.8,517z"/>
	</g>
</g>
</svg>
